<?xml version="1.0" standalone="no"?>
<!DOCTYPE svg PUBLIC "-//W3C//DTD SVG 20010904//EN"
 "http://www.w3.org/TR/2001/REC-SVG-20010904/DTD/svg10.dtd">
<svg version="1.0" xmlns="http://www.w3.org/2000/svg"
 width="225.000000pt" height="225.000000pt" viewBox="0 0 225.000000 225.000000"
 preserveAspectRatio="xMidYMid meet">

<g transform="translate(0.000000,225.000000) scale(0.100000,-0.100000)"
fill="#000000" stroke="none">
<path d="M0 1125 l0 -1125 1125 0 1125 0 0 1125 0 1125 -1125 0 -1125 0 0
-1125z m800 784 c0 -24 -23 -21 -28 4 -2 10 3 17 12 17 10 0 16 -9 16 -21z
m60 -24 c0 -9 -9 -15 -25 -15 -31 0 -33 17 -2 23 12 2 23 5 25 6 1 0 2 -6 2
-14z m-81 -29 c-2 -2 -13 -6 -23 -8 -24 -4 -33 19 -9 24 18 4 41 -7 32 -16z
m41 -26 c0 -10 -4 -21 -9 -24 -10 -7 -23 33 -15 46 8 13 24 -1 24 -22z m38
-165 c62 -33 65 -33 130 -23 38 6 117 8 181 5 107 -6 116 -5 155 17 53 31 118
48 152 40 36 -9 54 -57 54 -143 0 -58 4 -76 24 -106 46 -68 59 -127 54 -245
-6 -122 -30 -190 -89 -249 -37 -37 -114 -77 -167 -87 -30 -6 -33 -9 -27 -33 3
-14 9 -84 12 -156 5 -125 7 -131 34 -163 35 -39 35 -46 8 -73 -16 -16 -30 -20
-62 -17 -30 3 -46 -1 -59 -14 -10 -10 -27 -18 -38 -18 -22 0 -74 21 -102 42
-14 10 -21 8 -42 -11 -34 -32 -99 -40 -121 -13 -14 15 -26 19 -55 15 -80 -11
-109 48 -49 101 26 23 30 33 27 69 l-3 42 -51 6 c-28 4 -61 12 -75 19 -40 21
-88 72 -99 105 -6 18 -31 51 -55 74 -69 64 -55 111 33 111 45 0 49 -3 109 -67
59 -62 66 -68 105 -68 37 0 50 9 49 31 0 3 -30 17 -67 30 -126 44 -202 132
-230 269 -22 105 -13 191 27 264 24 45 29 67 29 120 0 76 14 133 37 157 23 23
93 10 171 -31z m842 -130 c37 -19 41 -39 5 -23 -14 6 -25 15 -25 20 0 5 -4 6
-10 3 -5 -3 -10 -1 -10 4 0 14 6 14 40 -4z m-4 -50 c-23 -17 -36 -19 -36 -6 0
5 8 12 18 14 32 9 37 6 18 -8z m-1236 -255 c0 -5 9 -10 20 -10 24 0 26 -15 4
-24 -9 -4 -14 -13 -10 -21 3 -9 0 -15 -9 -15 -18 0 -20 27 -2 33 9 3 9 7 0 17
-14 15 -36 3 -29 -16 3 -8 -1 -14 -9 -14 -20 0 -27 17 -10 24 8 3 15 12 15 21
0 8 7 15 15 15 8 0 15 -4 15 -10z m1141 -410 c23 -13 26 -62 5 -79 -46 -38
-111 25 -71 69 20 22 37 25 66 10z m-886 -221 c3 -10 1 -27 -5 -39 -20 -37
-70 -19 -70 27 0 41 63 52 75 12z m899 -198 c8 -12 -11 -17 -58 -17 -22 1 -41
6 -43 14 -5 14 92 18 101 3z m-54 -46 c0 -12 -18 -15 -99 -15 -91 0 -121 7
-104 24 3 3 51 6 105 6 80 0 98 -3 98 -15z"/>
<path d="M1405 1668 c-16 -6 -52 -24 -80 -39 -49 -27 -54 -27 -125 -18 -76 10
-217 3 -257 -12 -18 -6 -36 0 -83 28 -73 43 -143 55 -158 27 -15 -30 -22 -106
-13 -147 7 -29 5 -42 -9 -59 -47 -61 -55 -90 -55 -198 0 -99 2 -110 33 -172
18 -37 47 -79 65 -94 45 -38 127 -74 186 -81 28 -3 51 -7 51 -9 0 -3 -41 -86
-46 -92 -1 -2 -19 -7 -39 -12 -57 -13 -95 4 -156 70 -49 52 -61 60 -93 60 -43
0 -46 -12 -8 -39 16 -11 43 -47 61 -80 43 -81 78 -105 162 -109 l67 -4 4 -72
c3 -66 1 -73 -24 -102 -34 -39 -35 -44 -4 -44 37 0 86 20 96 40 6 10 10 66 10
124 0 104 5 136 20 136 15 0 0 -272 -16 -294 -20 -29 -18 -36 10 -36 36 0 76
39 86 85 5 22 10 91 10 153 0 68 4 112 10 112 6 0 10 -51 10 -134 0 -74 4
-145 9 -158 11 -28 72 -64 95 -55 14 6 14 10 -4 39 -17 29 -20 50 -19 168 0
85 4 128 9 115 5 -11 9 -69 9 -128 1 -106 2 -109 30 -138 21 -21 39 -29 65
-29 46 0 53 14 19 38 -28 20 -28 21 -33 170 -5 136 -7 153 -27 181 -26 35 -25
36 42 45 78 11 170 60 203 109 46 66 57 111 57 232 0 107 -1 112 -35 173 -19
34 -37 62 -40 62 -3 0 -3 28 -2 62 2 34 -1 79 -7 100 -13 41 -29 46 -86 26z"/>
<path d="M1550 781 c0 -27 19 -36 37 -18 18 18 9 37 -18 37 -12 0 -19 -7 -19
-19z"/>
<path d="M670 579 c0 -5 5 -7 10 -4 6 3 10 8 10 11 0 2 -4 4 -10 4 -5 0 -10
-5 -10 -11z"/>
</g>
</svg>
